<?xml version="1.0" encoding="UTF-8"?>
<svg xmlns="http://www.w3.org/2000/svg" xmlns:xlink="http://www.w3.org/1999/xlink" width="289.052pt" height="247.299pt" viewBox="0 0 289.052 247.299">
<defs>
<g>
<g id="glyph-0-0">
<path d="M 3.8125 -3.90625 C 3.8125 -4.90625 3.4375 -5.609375 2.765625 -5.609375 C 1.578125 -5.609375 0.34375 -3.390625 0.34375 -1.625 C 0.34375 -0.859375 0.609375 0.078125 1.40625 0.078125 C 2.5625 0.078125 3.8125 -2.078125 3.8125 -3.90625 Z M 1.25 -2.90625 C 1.625 -4.515625 2.265625 -5.390625 2.765625 -5.390625 C 3.25 -5.390625 3.25 -4.53125 3.25 -4.375 C 3.25 -3.9375 3.09375 -3.296875 3 -2.90625 Z M 2.9375 -2.625 C 2.5625 -1.03125 1.90625 -0.140625 1.40625 -0.140625 C 0.984375 -0.140625 0.9375 -0.78125 0.9375 -1.140625 C 0.9375 -1.65625 1.078125 -2.296875 1.171875 -2.625 Z M 2.9375 -2.625 "/>
</g>
<g id="glyph-1-0">
<path d="M 5.828125 -2.65625 C 5.9375 -2.65625 6.109375 -2.65625 6.109375 -2.84375 C 6.109375 -3.015625 5.90625 -3.015625 5.796875 -3.015625 L 0.78125 -3.015625 C 0.65625 -3.015625 0.46875 -3.015625 0.46875 -2.84375 C 0.46875 -2.65625 0.625 -2.65625 0.75 -2.65625 Z M 5.796875 -0.96875 C 5.90625 -0.96875 6.109375 -0.96875 6.109375 -1.140625 C 6.109375 -1.328125 5.9375 -1.328125 5.828125 -1.328125 L 0.75 -1.328125 C 0.625 -1.328125 0.46875 -1.328125 0.46875 -1.140625 C 0.46875 -0.96875 0.65625 -0.96875 0.78125 -0.96875 Z M 5.796875 -0.96875 "/>
</g>
<g id="glyph-1-1">
<path d="M 3.890625 -2.546875 C 3.890625 -3.390625 3.8125 -3.90625 3.546875 -4.421875 C 3.203125 -5.125 2.546875 -5.296875 2.109375 -5.296875 C 1.109375 -5.296875 0.734375 -4.546875 0.625 -4.328125 C 0.34375 -3.75 0.328125 -2.953125 0.328125 -2.546875 C 0.328125 -2.015625 0.34375 -1.21875 0.734375 -0.578125 C 1.09375 0.015625 1.6875 0.171875 2.109375 0.171875 C 2.5 0.171875 3.171875 0.046875 3.578125 -0.734375 C 3.875 -1.3125 3.890625 -2.03125 3.890625 -2.546875 Z M 2.109375 -0.0625 C 1.84375 -0.0625 1.296875 -0.1875 1.125 -1.015625 C 1.03125 -1.46875 1.03125 -2.21875 1.03125 -2.640625 C 1.03125 -3.1875 1.03125 -3.75 1.125 -4.1875 C 1.296875 -5 1.90625 -5.078125 2.109375 -5.078125 C 2.375 -5.078125 2.9375 -4.9375 3.09375 -4.21875 C 3.1875 -3.78125 3.1875 -3.171875 3.1875 -2.640625 C 3.1875 -2.171875 3.1875 -1.453125 3.09375 -1 C 2.921875 -0.171875 2.375 -0.0625 2.109375 -0.0625 Z M 2.109375 -0.0625 "/>
</g>
<g id="glyph-2-0">
<path d="M 4.171875 -4.4375 C 4.171875 -5.359375 3.875 -6.328125 3.046875 -6.328125 C 1.734375 -6.328125 0.375 -3.765625 0.375 -1.78125 C 0.375 -1.125 0.5625 0.09375 1.5 0.09375 C 2.8125 0.09375 4.171875 -2.4375 4.171875 -4.4375 Z M 1.34375 -3.25 C 1.53125 -3.96875 1.71875 -4.625 2.078125 -5.234375 C 2.296875 -5.59375 2.625 -6.09375 3.046875 -6.09375 C 3.53125 -6.09375 3.5625 -5.328125 3.5625 -4.984375 C 3.5625 -4.453125 3.421875 -3.828125 3.28125 -3.25 Z M 3.203125 -2.96875 C 3.0625 -2.40625 2.890625 -1.734375 2.53125 -1.09375 C 2.296875 -0.671875 1.9375 -0.125 1.5 -0.125 C 1.125 -0.125 1 -0.59375 1 -1.25 C 1 -1.828125 1.140625 -2.40625 1.28125 -2.96875 Z M 3.203125 -2.96875 "/>
</g>
<g id="glyph-2-1">
<path d="M 4.40625 -3.625 C 4.078125 -3.5625 3.984375 -3.28125 3.984375 -3.140625 C 3.984375 -2.96875 4.109375 -2.8125 4.328125 -2.8125 C 4.578125 -2.8125 4.828125 -3.03125 4.828125 -3.34375 C 4.828125 -3.765625 4.375 -3.96875 3.953125 -3.96875 C 3.421875 -3.96875 3.109375 -3.484375 3 -3.296875 C 2.828125 -3.734375 2.4375 -3.96875 2 -3.96875 C 1.046875 -3.96875 0.515625 -2.8125 0.515625 -2.578125 C 0.515625 -2.5 0.578125 -2.46875 0.640625 -2.46875 C 0.71875 -2.46875 0.75 -2.515625 0.765625 -2.578125 C 1.046875 -3.46875 1.640625 -3.734375 1.984375 -3.734375 C 2.25 -3.734375 2.46875 -3.5625 2.46875 -3.140625 C 2.46875 -2.828125 2.09375 -1.390625 1.96875 -0.953125 C 1.90625 -0.6875 1.625 -0.125 1.140625 -0.125 C 0.953125 -0.125 0.765625 -0.1875 0.6875 -0.234375 C 0.921875 -0.28125 1.109375 -0.5 1.109375 -0.71875 C 1.109375 -0.953125 0.9375 -1.046875 0.765625 -1.046875 C 0.5 -1.046875 0.265625 -0.828125 0.265625 -0.515625 C 0.265625 -0.078125 0.75 0.09375 1.125 0.09375 C 1.65625 0.09375 1.953125 -0.328125 2.09375 -0.578125 C 2.3125 0.015625 2.84375 0.09375 3.078125 0.09375 C 4.046875 0.09375 4.5625 -1.0625 4.5625 -1.28125 C 4.5625 -1.328125 4.53125 -1.390625 4.453125 -1.390625 C 4.34375 -1.390625 4.34375 -1.359375 4.296875 -1.21875 C 4.09375 -0.578125 3.578125 -0.125 3.109375 -0.125 C 2.859375 -0.125 2.609375 -0.28125 2.609375 -0.71875 C 2.609375 -0.921875 2.734375 -1.40625 2.8125 -1.75 C 2.859375 -1.90625 3.09375 -2.875 3.109375 -2.9375 C 3.21875 -3.265625 3.484375 -3.734375 3.953125 -3.734375 C 4.109375 -3.734375 4.28125 -3.71875 4.40625 -3.625 Z M 4.40625 -3.625 "/>
</g>
<g id="glyph-2-2">
<path d="M 3.625 -3.625 C 3.328125 -3.578125 3.171875 -3.328125 3.171875 -3.140625 C 3.171875 -2.96875 3.296875 -2.8125 3.53125 -2.8125 C 3.765625 -2.8125 4.015625 -3.015625 4.015625 -3.359375 C 4.015625 -3.703125 3.6875 -3.96875 3.25 -3.96875 C 2.578125 -3.96875 2.203125 -3.46875 2.078125 -3.296875 C 1.96875 -3.78125 1.5625 -3.96875 1.234375 -3.96875 C 0.90625 -3.96875 0.703125 -3.765625 0.546875 -3.453125 C 0.375 -3.125 0.265625 -2.625 0.265625 -2.578125 C 0.265625 -2.5 0.328125 -2.46875 0.390625 -2.46875 C 0.484375 -2.46875 0.5 -2.515625 0.546875 -2.703125 C 0.71875 -3.40625 0.90625 -3.734375 1.203125 -3.734375 C 1.484375 -3.734375 1.484375 -3.453125 1.484375 -3.3125 C 1.484375 -3.125 1.40625 -2.859375 1.359375 -2.625 C 1.296875 -2.390625 1.203125 -2 1.171875 -1.890625 L 0.8125 -0.421875 C 0.75 -0.203125 0.75 -0.1875 0.75 -0.15625 C 0.75 -0.046875 0.828125 0.09375 1.015625 0.09375 C 1.3125 0.09375 1.375 -0.140625 1.4375 -0.40625 C 1.546875 -0.796875 1.546875 -0.8125 1.625 -1.171875 C 1.96875 -2.515625 2.015625 -2.734375 2.03125 -2.78125 C 2.09375 -2.890625 2.5 -3.734375 3.25 -3.734375 C 3.453125 -3.734375 3.578125 -3.671875 3.625 -3.625 Z M 3.625 -3.625 "/>
</g>
<g id="glyph-2-3">
<path d="M 4.5 -3.453125 C 4.515625 -3.5 4.53125 -3.546875 4.53125 -3.609375 C 4.53125 -3.71875 4.453125 -3.859375 4.25 -3.859375 C 4.140625 -3.859375 3.96875 -3.796875 3.90625 -3.625 C 3.890625 -3.59375 3.796875 -3.21875 3.75 -3.015625 L 3.296875 -1.234375 C 3.234375 -0.96875 3.234375 -0.953125 3.203125 -0.875 C 3.203125 -0.828125 2.828125 -0.125 2.171875 -0.125 C 1.625 -0.125 1.625 -0.6875 1.625 -0.859375 C 1.625 -1.265625 1.734375 -1.703125 2.125 -2.703125 C 2.203125 -2.921875 2.25 -3.046875 2.25 -3.203125 C 2.25 -3.65625 1.921875 -3.96875 1.484375 -3.96875 C 0.625 -3.96875 0.265625 -2.6875 0.265625 -2.578125 C 0.265625 -2.5 0.328125 -2.46875 0.390625 -2.46875 C 0.484375 -2.46875 0.5 -2.53125 0.53125 -2.640625 C 0.71875 -3.3125 1.078125 -3.734375 1.453125 -3.734375 C 1.671875 -3.734375 1.671875 -3.5625 1.671875 -3.4375 C 1.671875 -3.296875 1.625 -3.125 1.546875 -2.921875 C 1.125 -1.796875 1.015625 -1.421875 1.015625 -1 C 1.015625 0 1.828125 0.09375 2.15625 0.09375 C 2.59375 0.09375 2.90625 -0.140625 3.0625 -0.296875 C 2.953125 0.15625 2.859375 0.5625 2.5 1.015625 C 2.234375 1.375 1.875 1.609375 1.484375 1.609375 C 1.234375 1.609375 0.9375 1.53125 0.8125 1.28125 C 1.28125 1.28125 1.34375 0.875 1.34375 0.796875 C 1.34375 0.59375 1.203125 0.46875 1 0.46875 C 0.796875 0.46875 0.5 0.640625 0.5 1.046875 C 0.5 1.515625 0.921875 1.84375 1.484375 1.84375 C 2.390625 1.84375 3.375 1.0625 3.625 0.015625 Z M 4.5 -3.453125 "/>
</g>
<g id="glyph-2-4">
<path d="M 1.25 -0.765625 C 1.4375 -0.984375 1.921875 -1.4375 2.3125 -1.765625 C 2.984375 -2.328125 3.1875 -2.515625 3.296875 -2.640625 C 4.03125 -3.359375 4.28125 -3.8125 4.28125 -3.859375 C 4.28125 -3.875 4.28125 -3.96875 4.15625 -3.96875 C 4.078125 -3.96875 4.0625 -3.9375 4.015625 -3.859375 C 3.90625 -3.6875 3.65625 -3.296875 3.359375 -3.296875 C 3.171875 -3.296875 3.0625 -3.40625 2.859375 -3.625 C 2.640625 -3.859375 2.46875 -3.96875 2.234375 -3.96875 C 1.546875 -3.96875 1.125 -3.140625 1.125 -2.921875 C 1.125 -2.890625 1.140625 -2.8125 1.234375 -2.8125 C 1.328125 -2.8125 1.359375 -2.875 1.359375 -2.890625 C 1.53125 -3.328125 2.0625 -3.328125 2.140625 -3.328125 C 2.34375 -3.328125 2.5625 -3.265625 2.75 -3.1875 C 3.109375 -3.078125 3.265625 -3.078125 3.40625 -3.078125 C 3.125 -2.765625 2.625 -2.328125 2.046875 -1.84375 C 1.609375 -1.46875 1.328125 -1.1875 1.125 -1 C 0.796875 -0.640625 0.390625 -0.09375 0.390625 0 C 0.390625 0.0625 0.4375 0.09375 0.515625 0.09375 C 0.59375 0.09375 0.609375 0.0625 0.65625 0.015625 C 1 -0.53125 1.34375 -0.5625 1.4375 -0.5625 C 1.65625 -0.5625 1.78125 -0.4375 1.984375 -0.203125 C 2.1875 0.03125 2.390625 0.09375 2.5625 0.09375 C 3.484375 0.09375 4.03125 -1.046875 4.03125 -1.296875 C 4.03125 -1.375 3.96875 -1.40625 3.90625 -1.40625 C 3.8125 -1.40625 3.796875 -1.34375 3.78125 -1.296875 C 3.53125 -0.640625 2.890625 -0.53125 2.65625 -0.53125 C 2.5 -0.53125 2.3125 -0.578125 2.046875 -0.671875 C 1.859375 -0.71875 1.65625 -0.796875 1.46875 -0.796875 C 1.375 -0.796875 1.28125 -0.765625 1.25 -0.765625 Z M 1.25 -0.765625 "/>
</g>
</g>
</defs>
<path fill="none" stroke-width="0.3985" stroke-linecap="butt" stroke-linejoin="miter" stroke="rgb(84.999084%, 84.999084%, 84.999084%)" stroke-opacity="1" stroke-miterlimit="10" d="M 42.427437 47.053312 L 42.200875 40.561125 L 41.532906 34.0455 L 40.427437 27.537687 L 38.884469 21.072844 L 36.911812 14.682219 L 34.525094 8.393156 L 31.732125 2.244719 L 28.544625 -3.73575 L 24.982125 -9.520906 L 21.064156 -15.0795 L 16.802437 -20.380281 L 12.228219 -25.403719 L 7.357125 -30.122469 L 2.2165 -34.513094 L -3.170219 -38.552156 L -8.775688 -42.220125 L -14.568656 -45.497469 L -20.525688 -48.368563 L -26.615531 -50.821688 L -32.803031 -52.845125 L -39.060844 -54.42325 L -45.357719 -55.552156 L -51.662406 -56.224031 L -57.947563 -56.438875 L -64.174125 -56.192781 L -70.31475 -55.48575 L -76.342094 -54.3295 L -82.221 -52.716219 L -87.920219 -50.665438 L -93.420219 -48.181063 L -98.68975 -45.282625 L -103.697563 -41.974031 L -108.424125 -38.282625 L -112.842094 -34.220125 L -116.935844 -29.809969 L -120.678031 -25.067781 L -124.056938 -20.024813 L -127.049125 -14.700594 L -129.638969 -9.130281 L -131.822563 -3.3295 L -133.580375 2.666594 L -134.9085 8.822844 L -135.791313 15.115812 L -136.236625 21.51425 L -136.240531 27.983 L -135.795219 34.490812 L -134.9085 41.006437 L -133.580375 47.498625 L -131.822563 53.932219 L -129.638969 60.272062 L -127.049125 66.494719 L -124.056938 72.565031 L -120.681938 78.45175 L -116.935844 84.123625 L -112.846 89.557219 L -108.424125 94.725187 L -103.697563 99.600187 L -98.68975 104.154875 L -93.424125 108.373625 L -87.924125 112.225187 L -82.221 115.70175 L -76.342094 118.779875 L -70.318656 121.443937 L -64.174125 123.682219 L -57.947563 125.486906 L -51.662406 126.842375 L -45.361625 127.740812 L -39.060844 128.182219 L -32.803031 128.166594 L -26.615531 127.693937 L -20.525688 126.756437 L -14.572563 125.373625 L -8.775688 123.541594 L -3.170219 121.275969 L 2.2165 118.580656 L 7.357125 115.475187 L 12.224312 111.975187 L 16.802437 108.092375 L 21.06025 103.854094 L 24.982125 99.272062 L 28.544625 94.381437 L 31.732125 89.193937 L 34.525094 83.744719 L 36.911812 78.053312 L 38.880562 72.150969 L 40.427437 66.072844 L 41.532906 59.842375 L 42.200875 53.490812 L 42.423531 47.053312 " transform="matrix(1, 0, 0, -1, 142.471, 134.358)"/>
<path fill="none" stroke-width="0.3985" stroke-linecap="butt" stroke-linejoin="miter" stroke="rgb(84.999084%, 84.999084%, 84.999084%)" stroke-opacity="1" stroke-miterlimit="10" d="M 42.427437 47.053312 L 89.361031 11.154875 " transform="matrix(1, 0, 0, -1, 142.471, 134.358)"/>
<path fill="none" stroke-width="0.3985" stroke-linecap="butt" stroke-linejoin="miter" stroke="rgb(84.999084%, 84.999084%, 84.999084%)" stroke-opacity="1" stroke-miterlimit="10" d="M -46.935844 -55.763094 L 0.00165625 -91.661531 " transform="matrix(1, 0, 0, -1, 142.471, 134.358)"/>
<path fill="none" stroke-width="0.3985" stroke-linecap="butt" stroke-linejoin="miter" stroke="rgb(84.999084%, 84.999084%, 84.999084%)" stroke-opacity="1" stroke-miterlimit="10" d="M -136.295219 24.740812 L -89.361625 -11.157625 " transform="matrix(1, 0, 0, -1, 142.471, 134.358)"/>
<path fill="none" stroke-width="0.3985" stroke-linecap="butt" stroke-linejoin="miter" stroke="rgb(84.999084%, 84.999084%, 84.999084%)" stroke-opacity="1" stroke-miterlimit="10" d="M -46.935844 127.561125 L 0.00165625 91.662687 " transform="matrix(1, 0, 0, -1, 142.471, 134.358)"/>
<path fill="none" stroke-width="0.3985" stroke-linecap="butt" stroke-linejoin="miter" stroke="rgb(77.49939%, 77.49939%, 77.49939%)" stroke-opacity="1" stroke-dasharray="3.9851 1.99255 0.99628 1.99255" stroke-miterlimit="10" d="M -46.935844 35.897062 L 0.00165625 -0.001375 " transform="matrix(1, 0, 0, -1, 142.471, 134.358)"/>
<path fill="none" stroke-width="0.3985" stroke-linecap="butt" stroke-linejoin="miter" stroke="rgb(64.99939%, 64.99939%, 64.99939%)" stroke-opacity="1" stroke-miterlimit="10" d="M 89.361031 11.154875 L 89.236031 6.303312 L 88.861031 1.436125 L 88.239937 -3.438875 L 87.37275 -8.306063 L 86.263375 -13.149813 L 84.911812 -17.9545 L 83.321969 -22.708406 L 81.501656 -27.399813 L 79.454781 -32.017 L 77.189156 -36.540438 L 74.704781 -40.966219 L 72.013375 -45.274813 L 69.118844 -49.458406 L 66.032906 -53.505281 L 62.763375 -57.403719 L 59.321969 -61.138094 L 55.712594 -64.7045 L 51.946969 -68.091219 L 48.040719 -71.286531 L 43.99775 -74.286531 L 39.829781 -77.075594 L 35.552437 -79.653719 L 31.177437 -82.005281 L 26.712594 -84.130281 L 22.173531 -86.020906 L 17.575875 -87.67325 L 12.927437 -89.0795 L 8.243844 -90.23575 L 3.536812 -91.145906 L -1.178031 -91.79825 L -5.892875 -92.192781 L -10.588188 -92.337313 L -15.256156 -92.220125 L -19.881156 -91.845125 L -24.455375 -91.212313 L -28.955375 -90.3295 L -33.37725 -89.192781 L -37.705375 -87.809969 L -41.928031 -86.177156 L -46.0335 -84.309969 L -50.013969 -82.2045 L -53.849906 -79.868563 L -57.537406 -77.309969 L -61.068656 -74.540438 L -64.424125 -71.559969 L -67.599906 -68.380281 L -70.592094 -65.009188 L -73.385063 -61.458406 L -75.971 -57.73575 L -78.349906 -53.852938 L -80.506156 -49.817781 L -82.43975 -45.645906 L -84.146781 -41.349031 L -85.615531 -36.931063 L -86.846 -32.415438 L -87.834281 -27.806063 L -88.580375 -23.118563 L -89.076469 -18.372469 L -89.326469 -13.571688 L -89.326469 -8.73575 L -89.076469 -3.868563 L -88.580375 1.002531 L -87.834281 5.873625 L -86.846 10.729094 L -85.615531 15.557219 L -84.146781 20.338469 L -82.43975 25.061125 L -80.506156 29.717375 L -78.349906 34.291594 L -75.971 38.768156 L -73.385063 43.135344 L -70.592094 47.385344 L -67.603813 51.502531 L -64.424125 55.475187 L -61.068656 59.291594 L -57.537406 62.943937 L -53.849906 66.424406 L -50.013969 69.717375 L -46.0335 72.815031 L -41.928031 75.709562 L -37.705375 78.393156 L -33.37725 80.858 L -28.955375 83.100187 L -24.451469 85.108 L -19.885063 86.877531 L -15.256156 88.408781 L -10.592094 89.690031 L -5.892875 90.721281 L -1.178031 91.502531 L 3.536812 92.025969 L 8.243844 92.2955 L 12.927437 92.307219 L 17.575875 92.061125 L 22.173531 91.561125 L 26.712594 90.803312 L 31.177437 89.791594 L 35.552437 88.529875 L 39.825875 87.022062 L 43.99775 85.272062 L 48.036812 83.283781 L 51.946969 81.061125 L 55.712594 78.615812 L 59.321969 75.95175 L 62.763375 73.072844 L 66.032906 69.994719 L 69.118844 66.717375 L 72.013375 63.256437 L 74.704781 59.619719 L 77.189156 55.815031 L 79.454781 51.854094 L 81.501656 47.748625 L 83.321969 43.51425 L 84.911812 39.154875 L 86.263375 34.686125 L 87.37275 30.119719 L 88.239937 25.475187 L 88.861031 20.752531 L 89.236031 15.975187 L 89.361031 11.154875 " transform="matrix(1, 0, 0, -1, 142.471, 134.358)"/>
<path fill="none" stroke-width="0.3985" stroke-linecap="butt" stroke-linejoin="miter" stroke="rgb(67.498779%, 67.498779%, 67.498779%)" stroke-opacity="1" stroke-dasharray="2.98883 2.98883" stroke-miterlimit="10" d="M 0.00165625 -0.001375 L 89.361031 11.154875 " transform="matrix(1, 0, 0, -1, 142.471, 134.358)"/>
<g fill="rgb(0%, 0%, 0%)" fill-opacity="1">
<use xlink:href="#glyph-0-0" x="196.955" y="124.134"/>
</g>
<g fill="rgb(0%, 0%, 0%)" fill-opacity="1">
<use xlink:href="#glyph-1-0" x="203.493" y="124.134"/>
</g>
<g fill="rgb(0%, 0%, 0%)" fill-opacity="1">
<use xlink:href="#glyph-1-1" x="212.43067" y="124.134"/>
</g>
<path fill="none" stroke-width="0.3985" stroke-linecap="butt" stroke-linejoin="miter" stroke="rgb(67.498779%, 67.498779%, 67.498779%)" stroke-opacity="1" stroke-miterlimit="10" d="M 0.00165625 -0.001375 L -73.209281 -61.724031 " transform="matrix(1, 0, 0, -1, 142.471, 134.358)"/>
<path fill="none" stroke-width="0.79701" stroke-linecap="butt" stroke-linejoin="miter" stroke="rgb(0%, 0%, 64.99939%)" stroke-opacity="1" stroke-miterlimit="10" d="M 41.107125 5.131437 L 41.083687 3.779875 L 41.021187 2.424406 L 40.915719 1.061125 L 40.767281 -0.29825 L 40.575875 -1.657625 L 40.349312 -3.017 L 40.075875 -4.372469 L 39.763375 -5.724031 L 39.407906 -7.067781 L 39.013375 -8.403719 L 38.579781 -9.73575 L 38.107125 -11.056063 L 37.5915 -12.36075 L 37.036812 -13.657625 L 36.446969 -14.938875 L 35.821969 -16.2045 L 35.157906 -17.4545 L 34.458687 -18.684969 L 33.724312 -19.895906 L 32.950875 -21.087313 L 32.150094 -22.259188 L 31.31025 -23.407625 L 30.443062 -24.528719 L 29.544625 -25.626375 L 28.611031 -26.700594 L 27.650094 -27.743563 L 26.665719 -28.759188 L 25.650094 -29.743563 L 24.607125 -30.700594 L 23.540719 -31.626375 L 22.446969 -32.517 L 21.333687 -33.376375 L 20.196969 -34.200594 L 19.040719 -34.989656 L 17.861031 -35.743563 L 16.669625 -36.462313 L 15.454781 -37.138094 L 14.228219 -37.778719 L 12.986031 -38.380281 L 11.732125 -38.942781 L 10.462594 -39.466219 L 9.18525 -39.950594 L 7.896187 -40.392 L 6.599312 -40.790438 L 5.298531 -41.149813 L 3.989937 -41.466219 L 2.677437 -41.739656 L 1.361031 -41.970125 L 0.044625 -42.157625 L -1.267875 -42.302156 L -2.584281 -42.399813 L -3.896781 -42.458406 L -5.205375 -42.474031 L -6.510063 -42.442781 L -7.806938 -42.372469 L -9.096 -42.251375 L -10.373344 -42.091219 L -11.642875 -41.888094 L -12.900688 -41.642 L -14.142875 -41.352938 L -15.369438 -41.020906 L -16.584281 -40.649813 L -17.779594 -40.231844 L -18.959281 -39.778719 L -20.119438 -39.278719 L -21.256156 -38.743563 L -22.373344 -38.165438 L -23.463188 -37.54825 L -24.5335 -36.892 L -25.576469 -36.196688 L -26.596 -35.470125 L -27.584281 -34.700594 L -28.545219 -33.899813 L -29.478813 -33.063875 L -30.381156 -32.192781 L -31.25225 -31.286531 L -32.092094 -30.352938 L -32.896781 -29.384188 L -31.803031 -30.79825 " transform="matrix(1, 0, 0, -1, 142.471, 134.358)"/>
<path fill-rule="nonzero" fill="rgb(0%, 0%, 64.99939%)" fill-opacity="1" stroke-width="0.79701" stroke-linecap="butt" stroke-linejoin="miter" stroke="rgb(0%, 0%, 64.99939%)" stroke-opacity="1" stroke-miterlimit="10" d="M 3.908495 -0.000027703 L 1.237775 1.08175 L 2.132381 -0.00221042 L 1.23613 -1.081868 Z M 3.908495 -0.000027703 " transform="matrix(-0.61264, -0.79031, -0.79031, 0.61264, 111.85151, 166.68269)"/>
<g fill="rgb(0%, 0%, 64.99939%)" fill-opacity="1">
<use xlink:href="#glyph-2-0" x="161.916" y="181.103"/>
</g>
<path fill-rule="nonzero" fill="rgb(0%, 0%, 0%)" fill-opacity="1" d="M 70.953125 196.082031 C 70.953125 195.144531 70.195312 194.386719 69.261719 194.386719 C 68.324219 194.386719 67.566406 195.144531 67.566406 196.082031 C 67.566406 197.015625 68.324219 197.773438 69.261719 197.773438 C 70.195312 197.773438 70.953125 197.015625 70.953125 196.082031 Z M 70.953125 196.082031 "/>
<path fill="none" stroke-width="0.79701" stroke-linecap="butt" stroke-linejoin="miter" stroke="rgb(64.99939%, 0%, 0%)" stroke-opacity="1" stroke-miterlimit="10" d="M -73.209281 -61.724031 L -57.580375 -73.677156 " transform="matrix(1, 0, 0, -1, 142.471, 134.358)"/>
<path fill-rule="nonzero" fill="rgb(64.99939%, 0%, 0%)" fill-opacity="1" stroke-width="0.79701" stroke-linecap="butt" stroke-linejoin="miter" stroke="rgb(64.99939%, 0%, 0%)" stroke-opacity="1" stroke-miterlimit="10" d="M 3.908121 0.00163697 L 1.237529 1.082047 L 2.132953 0.00131756 L 1.236053 -1.083018 Z M 3.908121 0.00163697 " transform="matrix(0.79427, 0.60748, 0.60748, -0.79427, 83.35584, 206.86157)"/>
<g fill="rgb(64.99939%, 0%, 0%)" fill-opacity="1">
<use xlink:href="#glyph-2-1" x="88.708" y="215.142"/>
</g>
<path fill="none" stroke-width="0.79701" stroke-linecap="butt" stroke-linejoin="miter" stroke="rgb(0%, 50%, 0%)" stroke-opacity="1" stroke-miterlimit="10" d="M -73.209281 -61.724031 L -107.478813 -90.614656 " transform="matrix(1, 0, 0, -1, 142.471, 134.358)"/>
<path fill-rule="nonzero" fill="rgb(0%, 50%, 0%)" fill-opacity="1" stroke-width="0.79701" stroke-linecap="butt" stroke-linejoin="miter" stroke="rgb(0%, 50%, 0%)" stroke-opacity="1" stroke-miterlimit="10" d="M 3.908407 -0.000129953 L 1.235206 1.083594 L 2.1313 0.00107476 L 1.23676 -1.084164 Z M 3.908407 -0.000129953 " transform="matrix(-0.7645, 0.64456, 0.64456, 0.7645, 36.46853, 223.72699)"/>
<g fill="rgb(0%, 50%, 0%)" fill-opacity="1">
<use xlink:href="#glyph-2-2" x="26.853" y="232.192"/>
</g>
<path fill="none" stroke-width="0.79701" stroke-linecap="butt" stroke-linejoin="miter" stroke="rgb(0%, 0%, 64.99939%)" stroke-opacity="1" stroke-miterlimit="10" d="M -73.209281 -61.724031 L -97.013969 -29.821688 " transform="matrix(1, 0, 0, -1, 142.471, 134.358)"/>
<path fill-rule="nonzero" fill="rgb(0%, 0%, 64.99939%)" fill-opacity="1" stroke-width="0.79701" stroke-linecap="butt" stroke-linejoin="miter" stroke="rgb(0%, 0%, 64.99939%)" stroke-opacity="1" stroke-miterlimit="10" d="M 3.908616 0.00100264 L 1.236358 1.083642 L 2.133548 -0.00016807 L 1.238474 -1.082065 Z M 3.908616 0.00100264 " transform="matrix(-0.59804, -0.80142, -0.80142, 0.59804, 46.61175, 165.7295)"/>
<g fill="rgb(0%, 0%, 64.99939%)" fill-opacity="1">
<use xlink:href="#glyph-2-2" x="33.256" y="160.342"/>
</g>
<g fill="rgb(0%, 0%, 64.99939%)" fill-opacity="1">
<use xlink:href="#glyph-2-0" x="37.673745" y="160.342"/>
</g>
<path fill="none" stroke-width="0.79701" stroke-linecap="butt" stroke-linejoin="miter" stroke="rgb(0%, 0%, 0%)" stroke-opacity="1" stroke-miterlimit="10" d="M 93.829781 -89.114656 L 128.337594 -84.806063 " transform="matrix(1, 0, 0, -1, 142.471, 134.358)"/>
<path fill-rule="nonzero" fill="rgb(0%, 0%, 0%)" fill-opacity="1" stroke-width="0.79701" stroke-linecap="butt" stroke-linejoin="miter" stroke="rgb(0%, 0%, 0%)" stroke-opacity="1" stroke-miterlimit="10" d="M 3.906623 -0.000802713 L 1.234783 1.08077 L 2.131312 0.000399834 L 1.236542 -1.080709 Z M 3.906623 -0.000802713 " transform="matrix(0.99226, -0.12389, -0.12389, -0.99226, 268.88914, 219.40507)"/>
<g fill="rgb(0%, 0%, 0%)" fill-opacity="1">
<use xlink:href="#glyph-2-3" x="276.222" y="219.845"/>
</g>
<path fill="none" stroke-width="0.79701" stroke-linecap="butt" stroke-linejoin="miter" stroke="rgb(0%, 0%, 0%)" stroke-opacity="1" stroke-miterlimit="10" d="M 93.829781 -89.114656 L 93.829781 -53.665438 " transform="matrix(1, 0, 0, -1, 142.471, 134.358)"/>
<path fill-rule="nonzero" fill="rgb(0%, 0%, 0%)" fill-opacity="1" stroke-width="0.79701" stroke-linecap="butt" stroke-linejoin="miter" stroke="rgb(0%, 0%, 0%)" stroke-opacity="1" stroke-miterlimit="10" d="M 3.909895 -0.00030125 L 1.23802 1.08173 L 2.132551 -0.00030125 L 1.23802 -1.082333 Z M 3.909895 -0.00030125 " transform="matrix(0, -1, -1, 0, 236.30048, 189.95677)"/>
<g fill="rgb(0%, 0%, 0%)" fill-opacity="1">
<use xlink:href="#glyph-2-4" x="233.963" y="182.584"/>
</g>
<path fill="none" stroke-width="0.79701" stroke-linecap="butt" stroke-linejoin="miter" stroke="rgb(0%, 0%, 0%)" stroke-opacity="1" stroke-miterlimit="10" d="M 93.829781 -89.114656 L 106.571969 -98.86075 " transform="matrix(1, 0, 0, -1, 142.471, 134.358)"/>
<path fill-rule="nonzero" fill="rgb(0%, 0%, 0%)" fill-opacity="1" stroke-width="0.79701" stroke-linecap="butt" stroke-linejoin="miter" stroke="rgb(0%, 0%, 0%)" stroke-opacity="1" stroke-miterlimit="10" d="M 3.908672 0.00204146 L 1.23808 1.082452 L 2.133505 0.00172205 L 1.236604 -1.082614 Z M 3.908672 0.00204146 " transform="matrix(0.79427, 0.60748, 0.60748, -0.79427, 247.5075, 232.04515)"/>
<g fill="rgb(0%, 0%, 0%)" fill-opacity="1">
<use xlink:href="#glyph-2-1" x="252.858" y="240.325"/>
</g>
</svg>
